<?xml version="1.0" encoding="UTF-8" standalone="no"?>
<!DOCTYPE svg PUBLIC "-//W3C//DTD SVG 1.1//EN"
 "http://www.w3.org/Graphics/SVG/1.1/DTD/svg11.dtd">
<!-- Generated by graphviz version 2.44.1 (20200629.0846)
 -->
<!-- Title: application_state_diagram Pages: 1 -->
<svg width="195pt" height="154pt"
 viewBox="0.00 0.00 195.15 154.00" xmlns="http://www.w3.org/2000/svg" xmlns:xlink="http://www.w3.org/1999/xlink">
<g id="graph0" class="graph" transform="scale(1 1) rotate(0) translate(4 150)">
<title>application_state_diagram</title>
<g id="a_graph0"><a xlink:href="index.html">
<polygon fill="white" stroke="transparent" points="-4,4 -4,-150 191.15,-150 191.15,4 -4,4"/>
</a>
</g>
<!-- User -->
<g id="node1" class="node">
<title>User</title>
<g id="a_node1"><a xlink:href="docs/semantic.User.html" xlink:title="&lt;TABLE&gt;">
<polygon fill="none" stroke="black" points="75.65,-138.5 21.65,-138.5 21.65,-94.5 75.65,-94.5 75.65,-138.5"/>
<polygon fill="#dddddd" stroke="transparent" points="22.65,-95.5 22.65,-137.5 74.65,-137.5 74.65,-95.5 22.65,-95.5"/>
<polygon fill="none" stroke="black" points="22.65,-95.5 22.65,-137.5 74.65,-137.5 74.65,-95.5 22.65,-95.5"/>
<text text-anchor="start" x="35.65" y="-120.3" font-family="Times,serif" font-size="14.00">User</text>
<text text-anchor="start" x="28.65" y="-105.3" font-family="Times,serif" font-size="14.00">(name)</text>
</a>
</g>
</g>
<!-- Index -->
<g id="node3" class="node">
<title>Index</title>
<g id="a_node3"><a xlink:href="docs/semantic.Index.html" xlink:title="Index">
<polygon fill="lightgrey" stroke="black" stroke-width="2" points="75.65,-36 21.65,-36 21.65,0 75.65,0 75.65,-36"/>
<text text-anchor="middle" x="48.65" y="-14.3" font-family="Times,serif" font-size="14.00">Index</text>
</a>
</g>
</g>
<!-- User&#45;&gt;Index -->
<g id="edge2" class="edge">
<title>User&#45;&gt;Index</title>
<g id="a_edge2"><a xlink:href="docs/safe.index.html" xlink:title="index (safe)">
<path fill="none" stroke="black" d="M21.49,-95.63C13.56,-88.25 5.89,-79.17 1.65,-69 -3.06,-57.72 3.55,-47.45 13.17,-39.2"/>
<polygon fill="black" stroke="black" points="15.48,-41.84 21.36,-33.03 11.27,-36.25 15.48,-41.84"/>
</a>
</g>
<g id="a_edge2&#45;label"><a xlink:href="docs/safe.index.html" xlink:title="index (safe)">
<text text-anchor="middle" x="34.15" y="-57.8" font-family="Times,serif" font-size="14.00">index (safe)</text>
</a>
</g>
</g>
<!-- name -->
<g id="node2" class="node">
<title>name</title>
<g id="a_node2"><a xlink:href="docs/semantic.name.html" xlink:title="&lt;TABLE&gt;">
<polygon fill="none" stroke="black" points="187.15,-146 94.15,-146 94.15,-87 187.15,-87 187.15,-146"/>
<polygon fill="#dddddd" stroke="transparent" points="95.65,-87.5 95.65,-144.5 186.65,-144.5 186.65,-87.5 95.65,-87.5"/>
<polygon fill="none" stroke="black" points="95.65,-87.5 95.65,-144.5 186.65,-144.5 186.65,-87.5 95.65,-87.5"/>
<text text-anchor="start" x="125.65" y="-127.3" font-family="Times,serif" font-size="14.00">name</text>
<text text-anchor="start" x="108.15" y="-112.3" font-family="Times,serif" font-size="14.00">(giveName)</text>
<text text-anchor="start" x="101.65" y="-97.3" font-family="Times,serif" font-size="14.00">(familyName)</text>
</a>
</g>
</g>
<!-- Index&#45;&gt;User -->
<g id="edge1" class="edge">
<title>Index&#45;&gt;User</title>
<g id="a_edge1"><a xlink:href="docs/safe.user.html" xlink:title="user (safe)">
<path fill="none" stroke="black" d="M62.14,-36.23C65.61,-41.62 68.86,-47.79 70.65,-54 73.62,-64.32 71.38,-75.43 67.38,-85.32"/>
<polygon fill="black" stroke="black" points="64.21,-83.83 63.12,-94.37 70.54,-86.81 64.21,-83.83"/>
</a>
</g>
<g id="a_edge1&#45;label"><a xlink:href="docs/safe.user.html" xlink:title="user (safe)">
<text text-anchor="middle" x="100.65" y="-57.8" font-family="Times,serif" font-size="14.00">user (safe)</text>
</a>
</g>
</g>
</g>
</svg>
